# xmcd
#
# Track frame offsets:
#	150
#	10475
#	22445
#	36775
#	49022
#	61592
#	72045
#	85620
#	99130
#	111555
#	125610
#	140127
#	153825
#	177052
#	188475
#	201247
#	213915
#	229925
#	243810
#	255797
#
# Disc length: 3568 seconds
# Revision: 0
# Processed by: cddbd v1.5.2PL0 Copyright (c) Steve Scherf et al.
# Submitted via: dBpowerAMP V12.0
#
DISCID=060dee14
DTITLE=B.B. King - The Best of B.B. King, Volume 2
DYEAR=1987
DGENRE=Blues
TTITLE0=Bad Luck Soul
TTITLE1=Get Out Of Here
TTITLE2=The Jungle
TTITLE3=Sugar Mama
TTITLE4=Ten Long Years
TTITLE5=Bad Case Of Love
TTITLE6=House Rocker
TTITLE7=Sneakin' Around
TTITLE8=Shut Your Mouth
TTITLE9=The Letter
TTITLE10=I've Got A Right To Love My Baby
TTITLE11=The Woman I Love
TTITLE12=You Done Lost Your Good Thing Now
TTITLE13=Did You Ever Love A Woman
TTITLE14=B.B. Rock
TTITLE15=Rock Me Baby
TTITLE16=It's My Own Fault
TTITLE17=You Know I Love You
TTITLE18=Low Rider
TTITLE19=You're Gonna Miss Me
EXTD=
EXTT0=
EXTT1=
EXTT2=
EXTT3=
EXTT4=
EXTT5=
EXTT6=
EXTT7=
EXTT8=
EXTT9=
EXTT10=
EXTT11=
EXTT12=
EXTT13=
EXTT14=
EXTT15=
EXTT16=
EXTT17=
EXTT18=
EXTT19=
PLAYORDER=
